<?xml version="1.0" encoding="UTF-8" standalone="no"?>
<svg
   xmlns:dc="http://purl.org/dc/elements/1.1/"
   xmlns:cc="http://creativecommons.org/ns#"
   xmlns:rdf="http://www.w3.org/1999/02/22-rdf-syntax-ns#"
   xmlns:svg="http://www.w3.org/2000/svg"
   xmlns="http://www.w3.org/2000/svg"
   viewBox="0 0 501.25 471.25"
   height="471.25"
   width="501.25"
   version="1.1"
   id="svg2">
  <metadata
     id="metadata8">
    <rdf:RDF>
      <cc:Work
         rdf:about="">
        <dc:format>image/svg+xml</dc:format>
        <dc:type
           rdf:resource="http://purl.org/dc/dcmitype/StillImage" />
        <dc:title></dc:title>
      </cc:Work>
    </rdf:RDF>
  </metadata>
  <defs
     id="defs6" />
  <g
     style="display:inline"
     id="layer1">
    <path
       id="path10676"
       d="m 246.49691,424.59188 c -17.50401,-2.4186 -37.07445,3.57829 -55.14914,-3.9638 -17.44117,-1.22235 -33.3328,-11.81099 -43.07449,-25.76176 -6.39262,-19.0834 -18.84163,-35.11894 -32.36964,-49.67709 -2.30687,-14.81752 -2.8115,-30.82309 -13.80284,-42.37567 -14.310348,-17.52184 -11.780688,-42.20685 -23.522333,-61.14429 -5.457598,-19.35725 -2.556606,-39.87549 -5.868148,-59.62885 0.338709,-5.41592 -2.309914,-29.95205 2.413125,-25.72896 8.361095,21.5082 12.198876,45.62455 28.699726,62.94051 2.09083,13.60843 21.27284,7.21412 22.74513,16.55551 1.22988,5.41469 -0.0952,12.78602 2.62342,17.06063 5.32157,2.43879 13.00587,2.63161 12.98458,10.14925 4.04374,7.50511 4.41739,27.78769 12.55329,24.21933 1.86165,-17.89141 -3.16065,-37.42812 7.70515,-53.46255 8.30501,-19.69816 29.28006,-26.84534 47.3303,-34.51961 14.04683,-7.19974 29.95776,-4.51072 42.52842,4.06311 10.24406,-4.01677 22.32827,-11.73218 34.7442,-6.20999 18.91481,2.06842 36.34104,11.35734 48.06325,26.41682 12.99805,14.52756 15.5365,34.43175 14.43764,53.12556 -0.56185,22.81936 7.32743,-4.84443 10.21701,-13.3463 0.32748,-7.60161 7.51385,-9.27747 13.17908,-12.26751 3.74194,-4.06669 1.00968,-12.2643 2.18896,-17.96611 0.37895,-5.54998 10.30898,-2.22572 14.63165,-4.11144 11.04569,-14.19243 22.50903,-28.3613 26.9823,-46.17577 3.60528,-6.23674 8.25051,-32.66367 12.07398,-27.63827 1.14577,26.04109 -4.00507,51.86038 -3.41524,77.89207 -6.52891,16.89554 -13.55868,33.93577 -16.34609,52.08944 -5.23809,17.33943 -23.48399,28.74653 -21.25709,48.58639 -2.21675,17.76506 -20.52158,27.23343 -26.32962,43.65902 -5.16133,17.39683 -17.73195,30.6 -33.64576,38.78146 -15.27444,2.31603 -30.34214,6.99284 -45.52723,9.19197 -12.17503,-4.99731 -24.64284,1.59762 -35.79359,-0.7531 l 0,0 z M 242.46132,294.5877 c 17.13446,-16.74958 31.31948,18.87054 47.00181,19.52891 9.38425,-11.38912 29.04828,8.33796 30.79456,-14.72176 6.09235,-15.02699 15.91643,-23.01393 7.25216,-39.41985 -7.42049,-7.09768 -8.63568,-24.54655 -20.60093,-25.13354 -16.21666,-1.20573 -32.7031,6.16845 -48.54057,1.67309 -9.18229,-8.25082 -21.06132,5.34306 -32.79853,-0.12074 -18.95433,-1.60797 -41.89518,6.6348 -49.68504,25.17995 -7.57674,17.93603 4.23145,33.6844 11.77834,49.31044 4.86071,10.5254 17.70373,-8.3815 23.73494,1.94979 5.36491,8.07031 10.48343,-2.93415 15.73281,-5.87093 5.01936,-4.23496 10.10429,-8.39748 15.33045,-12.37536 z m -86.9294,-120.66194 c -28.28177,-6.56204 -50.33266,-33.43055 -49.55736,-62.74227 5.39264,-14.887726 -13.452784,-10.67011 -14.822804,-17.781763 0,-5.976866 0,-11.953732 0,-17.930598 18.204354,0.447916 33.437774,-10.696793 46.514854,-22.106269 19.55431,-11.140234 45.66912,-9.128966 65.07897,1.566021 9.39753,2.621846 13.46258,17.173923 24.08909,14.326346 18.74561,-1.970294 37.60616,-1.841231 56.20257,1.410319 16.25494,-18.312199 41.51174,-29.224722 65.93817,-22.772107 22.9655,4.295662 37.70076,28.027029 62.25732,27.441868 3.53936,2.872238 0.53385,11.722736 1.52556,16.922063 1.39071,9.07381 -18.76301,3.005434 -13.70518,17.00459 1.58722,38.16012 -35.86455,72.02953 -73.72205,65.62425 -33.38089,-4.49363 -59.85496,-37.7312 -54.69763,-71.40993 8.49232,-23.728082 -22.18472,-22.230035 -35.57538,-16.085452 -3.11406,16.138842 3.00695,34.293552 -6.10792,49.857112 -10.59354,22.61484 -33.96096,39.04989 -59.43611,38.08507 -4.69102,0.0579 -9.41225,-0.30886 -13.9821,-1.40925 z m 28.54885,-8.14457 c 31.99498,-7.48491 50.46889,-47.45923 34.35736,-76.394738 -13.58541,-28.703683 -54.41023,-39.683114 -79.54985,-19.312421 -25.13786,17.036593 -30.42614,56.073839 -9.42138,78.449009 12.83645,15.99973 35.02524,22.27797 54.61387,17.25815 z m 163.10172,0.19022 c 31.49322,-7.13154 50.29386,-45.11432 36.32494,-74.332673 -12.88305,-32.288623 -58.82533,-42.494482 -84.42477,-19.179865 -24.91458,20.453383 -24.85872,63.045928 0.89303,82.800178 12.97249,10.43041 30.98234,14.9374 47.2068,10.71236 z"
       style="fill:#c83737" />
  </g>
</svg>
