<?xml version="1.0" encoding="UTF-8" standalone="no"?>
<!-- Created with Inkscape (http://www.inkscape.org/) -->

<svg
   xmlns:dc="http://purl.org/dc/elements/1.1/"
   xmlns:cc="http://creativecommons.org/ns#"
   xmlns:rdf="http://www.w3.org/1999/02/22-rdf-syntax-ns#"
   xmlns:svg="http://www.w3.org/2000/svg"
   xmlns="http://www.w3.org/2000/svg"
   xmlns:sodipodi="http://sodipodi.sourceforge.net/DTD/sodipodi-0.dtd"
   xmlns:inkscape="http://www.inkscape.org/namespaces/inkscape"
   id="svg2"
   version="1.1"
   inkscape:version="0.91 r13725"
   width="501.25"
   height="471.25"
   viewBox="0 0 501.25 471.25"
   sodipodi:docname="barba.svg">
  <metadata
     id="metadata8">
    <rdf:RDF>
      <cc:Work
         rdf:about="">
        <dc:format>image/svg+xml</dc:format>
        <dc:type
           rdf:resource="http://purl.org/dc/dcmitype/StillImage" />
        <dc:title></dc:title>
      </cc:Work>
    </rdf:RDF>
  </metadata>
  <defs
     id="defs6" />
  <sodipodi:namedview
     pagecolor="#ffffff"
     bordercolor="#666666"
     borderopacity="1"
     objecttolerance="10"
     gridtolerance="10"
     guidetolerance="10"
     inkscape:pageopacity="0"
     inkscape:pageshadow="2"
     inkscape:window-width="1920"
     inkscape:window-height="1053"
     id="namedview4"
     showgrid="false"
     inkscape:zoom="0.70823215"
     inkscape:cx="-78.004335"
     inkscape:cy="80.635748"
     inkscape:window-x="0"
     inkscape:window-y="27"
     inkscape:window-maximized="1"
     inkscape:current-layer="layer1" />
  <g
     inkscape:groupmode="layer"
     id="layer1"
     inkscape:label="barba"
     style="display:inline">
    <path
       style="fill:#c83737"
       d="m 245.83648,454.8237 c -20.30439,-2.80554 -43.0058,4.15076 -63.97216,-4.59795 -20.2315,-1.41791 -38.66555,-13.70057 -49.96575,-29.88325 C 124.48322,398.20605 110.04256,379.60506 94.350276,362.71784 91.674342,345.52974 91.088979,326.96352 78.339192,313.5627 61.739407,293.23764 64.673774,264.6034 51.053645,242.63626 44.722915,220.18215 48.088021,196.3813 44.246683,173.4677 c 0.392897,-6.28238 -2.679465,-34.74392 2.799188,-29.8452 9.698743,24.94918 14.15051,52.92378 33.291244,73.01003 2.425331,15.78557 24.676175,8.36828 26.384005,19.20414 1.42664,6.28096 -0.11043,14.83159 3.04313,19.79007 6.17294,2.82896 15.08661,3.05263 15.06191,11.77298 4.69068,8.70581 5.1241,32.2333 14.56163,28.09406 2.15948,-20.75377 -3.66631,-43.41606 8.93785,-62.01575 9.63369,-22.84957 33.96443,-31.14018 54.90243,-40.04222 16.29411,-8.35159 34.75054,-5.23237 49.33232,4.71314 11.88295,-4.65939 25.90045,-13.60914 40.30274,-7.20349 21.94089,2.39934 42.15505,13.17434 55.75263,30.64311 15.07755,16.85175 18.02211,39.9403 16.74745,61.62484 -0.65174,26.47011 8.4997,-5.61947 11.85158,-15.48151 0.37987,-8.81775 8.71595,-10.76172 15.28752,-14.23012 4.3406,-4.7173 1.17122,-14.2264 2.53917,-20.84042 0.43957,-6.43789 11.95826,-2.58179 16.97249,-4.7692 12.81283,-16.463 26.11013,-32.89868 31.29906,-53.56319 4.18206,-7.23452 9.57046,-37.88936 14.00562,-32.05997 1.32908,30.20726 -4.64581,60.15725 -3.96162,90.35361 -7.57344,19.59857 -15.72786,39.36498 -18.96121,60.42296 -6.07611,20.11347 -27.24107,33.34554 -24.65791,56.35947 -2.57139,20.6072 -23.80472,31.59036 -30.54195,50.6438 -5.98707,20.18005 -20.56879,35.49553 -39.02857,44.9859 -17.71812,2.68656 -35.19642,8.11158 -52.8109,10.66254 -14.12285,-5.7968 -28.58531,1.85322 -41.52001,-0.87358 l 0,0 z m -4.68123,-150.80286 c 19.87572,-19.42926 36.33012,21.88953 54.52139,22.65323 10.88558,-13.21121 33.69556,9.67191 35.72122,-17.07702 7.06703,-17.43108 18.46281,-26.6958 8.41239,-45.72642 -8.60765,-8.2332 -10.01726,-28.47363 -23.89676,-29.15453 -18.81108,-1.39862 -37.9351,7.15531 -56.30632,1.94077 -10.65132,-9.57083 -24.43081,6.19786 -38.04579,-0.14006 -21.98674,-1.86522 -48.59777,7.69626 -57.6339,29.20836 -8.7889,20.80552 4.90842,39.07338 13.6627,57.19936 5.63835,12.2093 20.53605,-9.72242 27.53216,2.26172 6.22322,9.36143 12.16063,-3.40357 18.24983,-6.81019 5.82238,-4.91249 11.72082,-9.74094 17.78308,-14.35522 z M 140.31847,164.05482 C 107.51206,156.44295 81.933359,125.27589 82.832695,91.274746 89.088075,74.00521 67.22767,78.897581 65.638469,70.648172 c 0,-6.933073 0,-13.866147 0,-20.79922 21.116772,0.519576 38.787311,-12.408117 53.956521,-25.642935 22.6827,-12.922502 52.97548,-10.589461 75.49062,1.816561 10.90098,3.041301 15.61638,19.921488 27.94297,16.618342 21.74462,-2.285511 43.62258,-2.1358 65.19413,1.635949 18.85548,-21.241872 48.15298,-33.900232 76.48726,-26.415297 26.63964,4.982903 43.73231,32.510926 72.21755,31.832148 4.1056,3.331753 0.61925,13.598196 1.76963,19.629335 1.6132,10.525482 -21.76482,3.486258 -15.89781,19.725066 1.84115,44.265159 -41.60233,83.553149 -85.51645,76.123129 -38.72133,-5.21254 -69.43084,-43.76762 -63.44842,-82.83443 9.85096,-27.524213 -25.73393,-25.786502 -41.26689,-18.658879 -3.61226,18.72081 3.48801,39.779999 -7.0851,57.833489 -12.28834,26.23287 -39.3942,45.29728 -68.94498,44.1781 -5.44151,0.0672 -10.91807,-0.35827 -16.21903,-1.63471 z m 33.11623,-9.44758 C 210.5484,145.92486 231.97785,99.555262 213.28872,65.990514 197.52985,32.694679 150.17369,19.958707 121.01211,43.5884 c -29.159536,19.762188 -35.29386,65.0448 -10.92866,90.99966 14.89009,18.55944 40.62875,25.8421 63.35125,20.01918 z m 189.19551,0.22066 c 36.53166,-8.27248 58.34012,-52.33193 42.13638,-86.22477 -14.94414,-37.45431 -68.23648,-49.29295 -97.93144,-22.24835 -28.90053,23.725612 -28.83574,73.13231 1.03589,96.04695 15.0479,12.09911 35.93905,17.32715 54.75917,12.42617 z"
       id="path10676"
       inkscape:connector-curvature="0" />
  </g>
</svg>
